<?xml version="1.0" encoding="utf-8"?>
<!-- Generator: Adobe Illustrator 21.0.0, SVG Export Plug-In . SVG Version: 6.00 Build 0)  -->
<svg version="1.1" id="Layer_1" xmlns="http://www.w3.org/2000/svg" xmlns:xlink="http://www.w3.org/1999/xlink" x="0px" y="0px"
	 viewBox="0 0 860.4 428.4" style="enable-background:new 0 0 860.4 428.4;" xml:space="preserve">
<style type="text/css">
	.st0{fill:none;stroke:#FF0000;stroke-width:7.200000e-02;}
</style>
<g transform="translate(22.5, 22.5) ">
	<polygon class="st0" points="-4.5,-4.5 32.4,-4.5 32.4,4 69.3,4 69.3,-4.5 90.9,-4.5 90.9,4 112.5,4 112.5,-4.5 134.1,-4.5 
		134.1,4 155.7,4 155.7,-4.5 177.3,-4.5 177.3,4 198.9,4 198.9,-4.5 220.5,-4.5 220.5,4 257.4,4 257.4,-4.5 294.3,-4.5 294.3,31.5 
		285.8,31.5 285.8,67.5 294.3,67.5 294.3,89.1 285.8,89.1 285.8,125.1 294.3,125.1 294.3,161.1 257.4,161.1 257.4,152.6 
		220.5,152.6 220.5,161.1 198.9,161.1 198.9,152.6 177.3,152.6 177.3,161.1 155.7,161.1 155.7,152.6 134.1,152.6 134.1,161.1 
		112.5,161.1 112.5,152.6 90.9,152.6 90.9,161.1 69.3,161.1 69.3,152.6 32.4,152.6 32.4,161.1 -4.5,161.1 -4.5,125.1 4,125.1 
		4,89.1 -4.5,89.1 -4.5,67.5 4,67.5 4,31.5 -4.5,31.5 	"/>
</g>
<g transform="translate(396.00000000000006, 22.5) ">
	<polygon class="st0" points="-79.2,-4.5 -42.3,-4.5 -42.3,4 -5.4,4 -5.4,-4.5 16.2,-4.5 16.2,4 37.8,4 37.8,-4.5 59.4,-4.5 59.4,4 
		81,4 81,-4.5 102.6,-4.5 102.6,4 124.2,4 124.2,-4.5 145.8,-4.5 145.8,4 182.7,4 182.7,-4.5 219.6,-4.5 219.6,31.5 211.1,31.5 
		211.1,67.5 219.6,67.5 219.6,89.1 211.1,89.1 211.1,125.1 219.6,125.1 219.6,161.1 182.7,161.1 182.7,152.6 145.8,152.6 
		145.8,161.1 124.2,161.1 124.2,152.6 102.6,152.6 102.6,161.1 81,161.1 81,152.6 59.4,152.6 59.4,161.1 37.8,161.1 37.8,152.6 
		16.2,152.6 16.2,161.1 -5.4,161.1 -5.4,152.6 -42.3,152.6 -42.3,161.1 -79.2,161.1 -79.2,125.1 -70.7,125.1 -70.7,89.1 -79.2,89.1 
		-79.2,67.5 -70.7,67.5 -70.7,31.5 -79.2,31.5 	"/>
</g>
<g transform="translate(769.5000000000001, 22.5) ">
	<polygon class="st0" points="-145.4,-4.5 -124.2,-4.5 -124.2,4 -94.5,4 -94.5,-4.5 -72.9,-4.5 -72.9,4 -51.3,4 -51.3,-4.5 
		-29.7,-4.5 -29.7,4 -8.1,4 -8.1,-4.5 13.5,-4.5 13.5,4 43.2,4 43.2,-4.5 64.4,-4.5 64.4,31.5 72.9,31.5 72.9,67.5 64.4,67.5 
		64.4,89.1 72.9,89.1 72.9,125.1 64.4,125.1 64.4,161.1 43.2,161.1 43.2,152.6 13.5,152.6 13.5,161.1 -8.1,161.1 -8.1,152.6 
		-29.7,152.6 -29.7,161.1 -51.3,161.1 -51.3,152.6 -72.9,152.6 -72.9,161.1 -94.5,161.1 -94.5,152.6 -124.2,152.6 -124.2,161.1 
		-145.4,161.1 -145.4,125.1 -153.9,125.1 -153.9,89.1 -145.4,89.1 -145.4,67.5 -153.9,67.5 -153.9,31.5 -145.4,31.5 	"/>
</g>
<g transform="translate(769.5000000000001, 229.49999999999997) ">
	<polygon class="st0" points="-145.4,-45.9 -124.2,-45.9 -124.2,-37.4 -94.5,-37.4 -94.5,-45.9 -72.9,-45.9 -72.9,-37.4 
		-51.3,-37.4 -51.3,-45.9 -29.7,-45.9 -29.7,-37.4 -8.1,-37.4 -8.1,-45.9 13.5,-45.9 13.5,-37.4 43.2,-37.4 43.2,-45.9 64.4,-45.9 
		64.4,-9.9 72.9,-9.9 72.9,26.1 64.4,26.1 64.4,47.7 72.9,47.7 72.9,83.7 64.4,83.7 64.4,119.7 43.2,119.7 43.2,111.2 13.5,111.2 
		13.5,119.7 -8.1,119.7 -8.1,111.2 -29.7,111.2 -29.7,119.7 -51.3,119.7 -51.3,111.2 -72.9,111.2 -72.9,119.7 -94.5,119.7 
		-94.5,111.2 -124.2,111.2 -124.2,119.7 -145.4,119.7 -145.4,83.7 -153.9,83.7 -153.9,47.7 -145.4,47.7 -145.4,26.1 -153.9,26.1 
		-153.9,-9.9 -145.4,-9.9 	"/>
</g>
<g transform="translate(22.5, 229.49999999999997) ">
	<polygon class="st0" points="4,-37.4 32.4,-37.4 32.4,-45.9 69.3,-45.9 69.3,-37.4 90.9,-37.4 90.9,-45.9 112.5,-45.9 112.5,-37.4 
		134.1,-37.4 134.1,-45.9 155.7,-45.9 155.7,-37.4 177.3,-37.4 177.3,-45.9 198.9,-45.9 198.9,-37.4 220.5,-37.4 220.5,-45.9 
		257.4,-45.9 257.4,-37.4 285.8,-37.4 285.8,-16.2 294.3,-16.2 294.3,13.5 285.8,13.5 285.8,35.1 294.3,35.1 294.3,56.7 285.8,56.7 
		285.8,78.3 294.3,78.3 294.3,99.9 285.8,99.9 285.8,121.5 294.3,121.5 294.3,151.2 285.8,151.2 285.8,172.4 257.4,172.4 
		257.4,180.9 220.5,180.9 220.5,172.4 198.9,172.4 198.9,180.9 177.3,180.9 177.3,172.4 155.7,172.4 155.7,180.9 134.1,180.9 
		134.1,172.4 112.5,172.4 112.5,180.9 90.9,180.9 90.9,172.4 69.3,172.4 69.3,180.9 32.4,180.9 32.4,172.4 4,172.4 4,151.2 
		-4.5,151.2 -4.5,121.5 4,121.5 4,99.9 -4.5,99.9 -4.5,78.3 4,78.3 4,56.7 -4.5,56.7 -4.5,35.1 4,35.1 4,13.5 -4.5,13.5 -4.5,-16.2 
		4,-16.2 	"/>
</g>
<g transform="translate(396.00000000000006, 229.49999999999997) ">
	<polygon class="st0" points="-70.7,-37.4 -42.3,-37.4 -42.3,-45.9 -5.4,-45.9 -5.4,-37.4 16.2,-37.4 16.2,-45.9 37.8,-45.9 
		37.8,-37.4 59.4,-37.4 59.4,-45.9 81,-45.9 81,-37.4 102.6,-37.4 102.6,-45.9 124.2,-45.9 124.2,-37.4 145.8,-37.4 145.8,-45.9 
		182.7,-45.9 182.7,-37.4 211.1,-37.4 211.1,-16.2 219.6,-16.2 219.6,13.5 211.1,13.5 211.1,35.1 219.6,35.1 219.6,56.7 211.1,56.7 
		211.1,78.3 219.6,78.3 219.6,99.9 211.1,99.9 211.1,121.5 219.6,121.5 219.6,151.2 211.1,151.2 211.1,172.4 182.7,172.4 
		182.7,180.9 145.8,180.9 145.8,172.4 124.2,172.4 124.2,180.9 102.6,180.9 102.6,172.4 81,172.4 81,180.9 59.4,180.9 59.4,172.4 
		37.8,172.4 37.8,180.9 16.2,180.9 16.2,172.4 -5.4,172.4 -5.4,180.9 -42.3,180.9 -42.3,172.4 -70.7,172.4 -70.7,151.2 -79.2,151.2 
		-79.2,121.5 -70.7,121.5 -70.7,99.9 -79.2,99.9 -79.2,78.3 -70.7,78.3 -70.7,56.7 -79.2,56.7 -79.2,35.1 -70.7,35.1 -70.7,13.5 
		-79.2,13.5 -79.2,-16.2 -70.7,-16.2 	"/>
</g>
</svg>
