<?xml version="1.0" encoding="utf-8"?>
<!-- Generator: Adobe Illustrator 21.0.0, SVG Export Plug-In . SVG Version: 6.00 Build 0)  -->
<svg version="1.1" id="Layer_1" xmlns="http://www.w3.org/2000/svg" xmlns:xlink="http://www.w3.org/1999/xlink" x="0px" y="0px"
	 viewBox="0 0 360 756" style="enable-background:new 0 0 360 756;" xml:space="preserve">
<style type="text/css">
	.st0{fill:none;stroke:#FF0000;stroke-width:7.200000e-02;}
</style>
<g transform="translate(22.5, 22.5) ">
	<polygon class="st0" points="-4.5,-4.5 9.9,-4.5 9.9,4 24.3,4 24.3,-4.5 38.7,-4.5 38.7,4 53.1,4 53.1,-4.5 67.5,-4.5 67.5,17.1 
		59,17.1 59,38.7 67.5,38.7 67.5,53.1 59,53.1 59,67.5 67.5,67.5 67.5,81.9 59,81.9 59,96.3 67.5,96.3 67.5,110.7 59,110.7 
		59,125.1 67.5,125.1 67.5,139.5 59,139.5 59,153.9 67.5,153.9 67.5,168.3 59,168.3 59,182.7 67.5,182.7 67.5,197.1 59,197.1 
		59,211.5 67.5,211.5 67.5,225.9 59,225.9 59,240.3 67.5,240.3 67.5,254.7 59,254.7 59,269.1 67.5,269.1 67.5,283.5 59,283.5 
		59,297.9 67.5,297.9 67.5,312.3 59,312.3 59,333.9 67.5,333.9 67.5,355.5 53.1,355.5 53.1,347 38.7,347 38.7,355.5 24.3,355.5 
		24.3,347 9.9,347 9.9,355.5 -4.5,355.5 -4.5,333.9 4,333.9 4,312.3 -4.5,312.3 -4.5,297.9 4,297.9 4,283.5 -4.5,283.5 -4.5,269.1 
		4,269.1 4,254.7 -4.5,254.7 -4.5,240.3 4,240.3 4,225.9 -4.5,225.9 -4.5,211.5 4,211.5 4,197.1 -4.5,197.1 -4.5,182.7 4,182.7 
		4,168.3 -4.5,168.3 -4.5,153.9 4,153.9 4,139.5 -4.5,139.5 -4.5,125.1 4,125.1 4,110.7 -4.5,110.7 -4.5,96.3 4,96.3 4,81.9 
		-4.5,81.9 -4.5,67.5 4,67.5 4,53.1 -4.5,53.1 -4.5,38.7 4,38.7 4,17.1 -4.5,17.1 	"/>
</g>
<g transform="translate(112.5, 22.5) ">
	<polygon class="st0" points="-22.5,-4.5 -8.1,-4.5 -8.1,4 6.3,4 6.3,-4.5 20.7,-4.5 20.7,4 35.1,4 35.1,-4.5 49.5,-4.5 49.5,17.1 
		41,17.1 41,38.7 49.5,38.7 49.5,53.1 41,53.1 41,67.5 49.5,67.5 49.5,81.9 41,81.9 41,96.3 49.5,96.3 49.5,110.7 41,110.7 
		41,125.1 49.5,125.1 49.5,139.5 41,139.5 41,153.9 49.5,153.9 49.5,168.3 41,168.3 41,182.7 49.5,182.7 49.5,197.1 41,197.1 
		41,211.5 49.5,211.5 49.5,225.9 41,225.9 41,240.3 49.5,240.3 49.5,254.7 41,254.7 41,269.1 49.5,269.1 49.5,283.5 41,283.5 
		41,297.9 49.5,297.9 49.5,312.3 41,312.3 41,333.9 49.5,333.9 49.5,355.5 35.1,355.5 35.1,347 20.7,347 20.7,355.5 6.3,355.5 
		6.3,347 -8.1,347 -8.1,355.5 -22.5,355.5 -22.5,333.9 -14,333.9 -14,312.3 -22.5,312.3 -22.5,297.9 -14,297.9 -14,283.5 
		-22.5,283.5 -22.5,269.1 -14,269.1 -14,254.7 -22.5,254.7 -22.5,240.3 -14,240.3 -14,225.9 -22.5,225.9 -22.5,211.5 -14,211.5 
		-14,197.1 -22.5,197.1 -22.5,182.7 -14,182.7 -14,168.3 -22.5,168.3 -22.5,153.9 -14,153.9 -14,139.5 -22.5,139.5 -22.5,125.1 
		-14,125.1 -14,110.7 -22.5,110.7 -22.5,96.3 -14,96.3 -14,81.9 -22.5,81.9 -22.5,67.5 -14,67.5 -14,53.1 -22.5,53.1 -22.5,38.7 
		-14,38.7 -14,17.1 -22.5,17.1 	"/>
</g>
<g transform="translate(202.5, 22.5) ">
	<polygon class="st0" points="-32,-4.5 -20.7,-4.5 -20.7,4 -0.9,4 -0.9,-4.5 13.5,-4.5 13.5,4 27.9,4 27.9,-4.5 42.3,-4.5 42.3,4 
		56.7,4 56.7,-4.5 71.1,-4.5 71.1,4 85.5,4 85.5,-4.5 99.9,-4.5 99.9,4 119.7,4 119.7,-4.5 131,-4.5 131,17.1 139.5,17.1 
		139.5,38.7 131,38.7 131,53.1 139.5,53.1 139.5,67.5 131,67.5 131,81.9 139.5,81.9 139.5,96.3 131,96.3 131,110.7 139.5,110.7 
		139.5,125.1 131,125.1 131,139.5 139.5,139.5 139.5,153.9 131,153.9 131,168.3 139.5,168.3 139.5,182.7 131,182.7 131,197.1 
		139.5,197.1 139.5,211.5 131,211.5 131,225.9 139.5,225.9 139.5,240.3 131,240.3 131,254.7 139.5,254.7 139.5,269.1 131,269.1 
		131,283.5 139.5,283.5 139.5,297.9 131,297.9 131,312.3 139.5,312.3 139.5,333.9 131,333.9 131,355.5 119.7,355.5 119.7,347 
		99.9,347 99.9,355.5 85.5,355.5 85.5,347 71.1,347 71.1,355.5 56.7,355.5 56.7,347 42.3,347 42.3,355.5 27.9,355.5 27.9,347 
		13.5,347 13.5,355.5 -0.9,355.5 -0.9,347 -20.7,347 -20.7,355.5 -32,355.5 -32,333.9 -40.5,333.9 -40.5,312.3 -32,312.3 -32,297.9 
		-40.5,297.9 -40.5,283.5 -32,283.5 -32,269.1 -40.5,269.1 -40.5,254.7 -32,254.7 -32,240.3 -40.5,240.3 -40.5,225.9 -32,225.9 
		-32,211.5 -40.5,211.5 -40.5,197.1 -32,197.1 -32,182.7 -40.5,182.7 -40.5,168.3 -32,168.3 -32,153.9 -40.5,153.9 -40.5,139.5 
		-32,139.5 -32,125.1 -40.5,125.1 -40.5,110.7 -32,110.7 -32,96.3 -40.5,96.3 -40.5,81.9 -32,81.9 -32,67.5 -40.5,67.5 -40.5,53.1 
		-32,53.1 -32,38.7 -40.5,38.7 -40.5,17.1 -32,17.1 	"/>
</g>
<g transform="translate(202.5, 472.5) ">
	<polygon class="st0" points="-32,-94.5 -20.7,-94.5 -20.7,-86 -0.9,-86 -0.9,-94.5 13.5,-94.5 13.5,-86 27.9,-86 27.9,-94.5 
		42.3,-94.5 42.3,-86 56.7,-86 56.7,-94.5 71.1,-94.5 71.1,-86 85.5,-86 85.5,-94.5 99.9,-94.5 99.9,-86 119.7,-86 119.7,-94.5 
		131,-94.5 131,-72.9 139.5,-72.9 139.5,-51.3 131,-51.3 131,-36.9 139.5,-36.9 139.5,-22.5 131,-22.5 131,-8.1 139.5,-8.1 
		139.5,6.3 131,6.3 131,20.7 139.5,20.7 139.5,35.1 131,35.1 131,49.5 139.5,49.5 139.5,63.9 131,63.9 131,78.3 139.5,78.3 
		139.5,92.7 131,92.7 131,107.1 139.5,107.1 139.5,121.5 131,121.5 131,135.9 139.5,135.9 139.5,150.3 131,150.3 131,164.7 
		139.5,164.7 139.5,179.1 131,179.1 131,193.5 139.5,193.5 139.5,207.9 131,207.9 131,222.3 139.5,222.3 139.5,243.9 131,243.9 
		131,265.5 119.7,265.5 119.7,257 99.9,257 99.9,265.5 85.5,265.5 85.5,257 71.1,257 71.1,265.5 56.7,265.5 56.7,257 42.3,257 
		42.3,265.5 27.9,265.5 27.9,257 13.5,257 13.5,265.5 -0.9,265.5 -0.9,257 -20.7,257 -20.7,265.5 -32,265.5 -32,243.9 -40.5,243.9 
		-40.5,222.3 -32,222.3 -32,207.9 -40.5,207.9 -40.5,193.5 -32,193.5 -32,179.1 -40.5,179.1 -40.5,164.7 -32,164.7 -32,150.3 
		-40.5,150.3 -40.5,135.9 -32,135.9 -32,121.5 -40.5,121.5 -40.5,107.1 -32,107.1 -32,92.7 -40.5,92.7 -40.5,78.3 -32,78.3 
		-32,63.9 -40.5,63.9 -40.5,49.5 -32,49.5 -32,35.1 -40.5,35.1 -40.5,20.7 -32,20.7 -32,6.3 -40.5,6.3 -40.5,-8.1 -32,-8.1 
		-32,-22.5 -40.5,-22.5 -40.5,-36.9 -32,-36.9 -32,-51.3 -40.5,-51.3 -40.5,-72.9 -32,-72.9 	"/>
</g>
<g transform="translate(22.5, 472.5) ">
	<polygon class="st0" points="4,-86 9.9,-86 9.9,-94.5 24.3,-94.5 24.3,-86 38.7,-86 38.7,-94.5 53.1,-94.5 53.1,-86 59,-86 
		59,-74.7 67.5,-74.7 67.5,-54.9 59,-54.9 59,-40.5 67.5,-40.5 67.5,-26.1 59,-26.1 59,-11.7 67.5,-11.7 67.5,2.7 59,2.7 59,17.1 
		67.5,17.1 67.5,31.5 59,31.5 59,45.9 67.5,45.9 67.5,65.7 59,65.7 59,77 53.1,77 53.1,85.5 38.7,85.5 38.7,77 24.3,77 24.3,85.5 
		9.9,85.5 9.9,77 4,77 4,65.7 -4.5,65.7 -4.5,45.9 4,45.9 4,31.5 -4.5,31.5 -4.5,17.1 4,17.1 4,2.7 -4.5,2.7 -4.5,-11.7 4,-11.7 
		4,-26.1 -4.5,-26.1 -4.5,-40.5 4,-40.5 4,-54.9 -4.5,-54.9 -4.5,-74.7 4,-74.7 	"/>
</g>
<g transform="translate(112.5, 472.5) ">
	<polygon class="st0" points="-14,-86 -8.1,-86 -8.1,-94.5 6.3,-94.5 6.3,-86 20.7,-86 20.7,-94.5 35.1,-94.5 35.1,-86 41,-86 
		41,-74.7 49.5,-74.7 49.5,-54.9 41,-54.9 41,-40.5 49.5,-40.5 49.5,-26.1 41,-26.1 41,-11.7 49.5,-11.7 49.5,2.7 41,2.7 41,17.1 
		49.5,17.1 49.5,31.5 41,31.5 41,45.9 49.5,45.9 49.5,65.7 41,65.7 41,77 35.1,77 35.1,85.5 20.7,85.5 20.7,77 6.3,77 6.3,85.5 
		-8.1,85.5 -8.1,77 -14,77 -14,65.7 -22.5,65.7 -22.5,45.9 -14,45.9 -14,31.5 -22.5,31.5 -22.5,17.1 -14,17.1 -14,2.7 -22.5,2.7 
		-22.5,-11.7 -14,-11.7 -14,-26.1 -22.5,-26.1 -22.5,-40.5 -14,-40.5 -14,-54.9 -22.5,-54.9 -22.5,-74.7 -14,-74.7 	"/>
</g>
<rect x="194.6" y="54.5" width="45" height="36"/>
<rect x="272.2" y="54.5" width="45" height="36"/>
<rect x="194.6" y="126.9" width="45" height="113.8"/>
<rect x="272.2" y="126.9" width="45" height="113.8"/>
<rect x="194.6" y="285.5" width="45" height="36"/>
<rect x="272.2" y="285.5" width="45" height="36"/>
</svg>
